<svg width="24" height="24" viewBox="0 0 24 24" fill="none" xmlns="http://www.w3.org/2000/svg">
<path fill-rule="evenodd" clip-rule="evenodd" d="M13.468 2.8876C14.5379 2.77464 15.631 3.04951 16.4507 3.52278C17.2705 3.99604 18.0551 4.80529 18.4922 5.78827C18.9414 6.7985 19.0375 8.04234 18.3478 9.23688L13.8478 17.0311C13.6012 17.4584 13.1212 18.0101 12.4211 18.3254C11.6636 18.6666 10.7248 18.6921 9.74977 18.1292C8.77469 17.5662 8.32745 16.7404 8.24417 15.9139C8.16718 15.1499 8.40501 14.4584 8.65169 14.0311L12.6517 7.1029C12.9278 6.62461 13.5394 6.46073 14.0177 6.73688C14.496 7.01302 14.6599 7.62461 14.3837 8.1029L10.3837 15.0311C10.2971 15.1812 10.2081 15.4557 10.2341 15.7134C10.2538 15.9085 10.3392 16.1601 10.7498 16.3971C11.1603 16.6342 11.4209 16.5824 11.5998 16.5018C11.8359 16.3955 12.0291 16.1812 12.1158 16.0311L16.6158 8.23688C16.9261 7.69936 16.9063 7.14416 16.6647 6.60087C16.411 6.03033 15.93 5.53156 15.4507 5.25483C14.9714 4.97809 14.299 4.81098 13.6781 4.87654C13.0868 4.93898 12.596 5.19936 12.2857 5.73688L7.28567 14.3971C6.63134 15.5305 6.99993 17.6963 9.24977 18.9952C11.4996 20.2942 13.5595 19.5305 14.2139 18.3971L17.7139 12.335C17.99 11.8567 18.6016 11.6928 19.0799 11.9689C19.5582 12.2451 19.7221 12.8567 19.4459 13.335L15.9459 19.3971C14.6002 21.7279 11.1961 22.4283 8.24977 20.7273C5.30346 19.0262 4.20794 15.7279 5.55362 13.3971L10.5536 4.73688C11.2433 3.54234 12.3686 3.00369 13.468 2.8876Z" fill="#7A7A7A"/>
</svg>
