<svg width="20" height="19" viewBox="0 0 20 19" fill="none" xmlns="http://www.w3.org/2000/svg">
<path fill-rule="evenodd" clip-rule="evenodd" d="M10 2C5.46774 2 2 5.24148 2 9C2 12.7585 5.46774 16 10 16C10.6209 16 11.224 15.9381 11.8023 15.8215C11.9231 15.7971 12.0473 15.7953 12.1687 15.8161L17.4315 16.717L16.3869 14.0167C16.258 13.6833 16.3168 13.3064 16.5412 13.0282C17.4673 11.8799 18 10.4904 18 9C18 5.24148 14.5323 2 10 2ZM0 9C0 3.92196 4.59113 0 10 0C15.4089 0 20 3.92196 20 9C20 10.7774 19.4276 12.4282 18.4527 13.8133L19.9327 17.6392C20.0625 17.9749 20.0019 18.3545 19.774 18.6332C19.5461 18.9118 19.1861 19.0464 18.8313 18.9857L12.0104 17.8181C11.3601 17.9375 10.6877 18 10 18C4.59113 18 0 14.078 0 9Z" fill="#7A7A7A"/>
</svg>
