<svg width="20" height="18" viewBox="0 0 20 18" fill="none" xmlns="http://www.w3.org/2000/svg">
<path fill-rule="evenodd" clip-rule="evenodd" d="M10 8C12.2091 8 14 6.20914 14 4C14 1.79086 12.2091 0 10 0C7.79086 0 6 1.79086 6 4C6 6.20914 7.79086 8 10 8ZM10 6C11.1046 6 12 5.10457 12 4C12 2.89543 11.1046 2 10 2C8.89543 2 8 2.89543 8 4C8 5.10457 8.89543 6 10 6ZM10 11C4.4686 11 2 14.6324 2 17C2 17.5523 1.55228 18 1 18C0.447715 18 0 17.5523 0 17C0 13.3676 3.5314 9 10 9C16.4686 9 20 13.3676 20 17C20 17.5523 19.5523 18 19 18C18.4477 18 18 17.5523 18 17C18 14.6324 15.5314 11 10 11Z" fill="#7A7A7A"/>
</svg>
